<svg id="Capa_1" data-name="Capa 1" xmlns="http://www.w3.org/2000/svg" viewBox="0 0 891.44 423.76"><defs><style>.cls-1{fill:#191c38;}.cls-2{font-size:37.98px;font-family:Consolas;}.cls-2,.cls-3{fill:#fff;}.cls-4{fill:#feed68;}.cls-5{fill:#f08284;}.cls-6{fill:#a2c161;}.cls-7{fill:#4986c6;}</style></defs><rect class="cls-1" x="552.44" y="201.81" width="339" height="221.95"/><text class="cls-2" transform="translate(71.47 166.93)">&lt;h-code&gt;</text><rect class="cls-3" x="222.22" y="35.61" width="76.76" height="11.71" rx="5.37"/><rect class="cls-3" x="57.43" y="35.86" width="34.69" height="11.21" rx="5.37"/><rect class="cls-4" x="137.2" y="35.64" width="47.3" height="11.65" rx="5.37"/><rect class="cls-5" x="222.22" y="87.64" width="63.25" height="11.21" rx="5.37"/><rect class="cls-3" y="87.39" width="92.13" height="11.71" rx="5.37"/><rect class="cls-3" x="137.2" y="87.76" width="18.15" height="10.97" rx="5.37"/><rect class="cls-6" x="158.78" y="87.76" width="25.34" height="10.96" rx="5.37"/><rect class="cls-7" x="222.22" y="18.26" width="39.6" height="11.53" rx="5.37"/><rect class="cls-3" x="38.85" y="18.26" width="53.28" height="11.53" rx="5.37"/><rect class="cls-3" x="137.2" y="18.4" width="21.58" height="11.24" rx="5.37"/><rect class="cls-5" x="162.13" y="18.15" width="21.58" height="11.74" rx="5.37"/><rect class="cls-6" x="222.22" y="53.04" width="54.81" height="11" rx="5.37"/><rect class="cls-4" x="72.64" y="53.04" width="19.49" height="11" rx="5.37"/><rect class="cls-3" x="20.27" y="53.16" width="46.63" height="10.76" rx="5.37"/><rect class="cls-3" x="223.22" y="105.32" width="39.6" height="10.81" rx="5.37"/><rect class="cls-5" x="61.81" y="104.82" width="31.32" height="11.81" rx="5.37"/><rect class="cls-7" x="137.83" y="104.89" width="47.3" height="11.66" rx="5.37"/><rect class="cls-3" x="270.4" y="105.35" width="39.6" height="10.75" rx="5.37"/><rect class="cls-3" x="25.06" y="104.89" width="31.32" height="11.67" rx="5.37"/><rect class="cls-3" x="223.22" y="70.01" width="34.53" height="11.41" rx="5.37"/><rect class="cls-7" x="31.41" y="69.76" width="61.72" height="11.91" rx="5.37"/><rect class="cls-4" x="264.49" y="70.06" width="27.06" height="11.31" rx="5.37"/><rect class="cls-3" x="136.14" y="70.08" width="47.3" height="11.27" rx="5.37"/><rect class="cls-3" x="222.97" y="0.5" width="39.6" height="10.81" rx="5.37"/><rect class="cls-6" x="61.56" width="31.32" height="11.81" rx="5.37"/><rect class="cls-3" x="137.57" y="0.08" width="47.3" height="11.66" rx="5.37"/><rect class="cls-3" x="270.14" y="0.53" width="39.6" height="10.75" rx="5.37"/><rect class="cls-3" x="24.8" y="0.07" width="31.32" height="11.67" rx="5.37"/></svg>