<?xml version="1.0" encoding="utf-8"?>
<!-- Generator: Adobe Illustrator 27.5.0, SVG Export Plug-In . SVG Version: 6.00 Build 0)  -->
<svg version="1.1" id="Layer_1" xmlns="http://www.w3.org/2000/svg" xmlns:xlink="http://www.w3.org/1999/xlink" x="0px" y="0px"
	viewBox="0 0 4000 4000" style="enable-background:new 0 0 4000 4000;" xml:space="preserve">
<g>
	<g>
		<rect style="fill:#C5C5FF;" width="4000" height="4000"/>
	</g>
	<g>
		<g style="opacity:0.2;">
			<ellipse style="fill:#371A45;" cx="1986.11" cy="3494.772" rx="990.973" ry="170.228"/>
		</g>
		<g>
			<path style="fill:#62ED2E;" d="M1185.586,2548.948c20.699,155.801,210.186,427.881,478.614,234.589
				c197.453-142.103,238.901-508.8,238.901-508.8s371.466-231.697,112.17-214.042c-184.464,12.582-240.169,158.49-377.858,272.081
				c-53.219,43.884-118.613,82.948-208.461,107.655c-4.414,1.218-8.928,2.384-13.495,3.551L1185.586,2548.948z"/>
		</g>
		<g>
			<path style="fill:#31C418;" d="M1185.586,2548.948c20.699,155.801,210.186,427.881,478.614,234.589
				c197.453-142.103,238.901-508.8,238.901-508.8s371.466-231.697,112.17-214.042c-184.464,12.582-240.169,158.49-377.858,272.081
				c77.21,204.513-16.891,338.222-87.956,341.79c-74.309,3.731,9.269-168.284,9.269-168.284l-129.775-65.851
				c-4.414,1.218-8.928,2.384-13.495,3.551L1185.586,2548.948z"/>
		</g>
		<g>
			<path style="fill:#371A45;" d="M1482.166,2870.503c-39.741,0-73.735-9.248-100.835-20.942
				c-121.445-52.397-201.855-192.617-215.859-297.954c-1.475-11.108,6.333-21.313,17.441-22.791
				c11.138-1.46,21.318,6.335,22.793,17.444c12.705,95.596,87.886,221.245,191.704,266.035
				c79.712,34.399,165.503,19.189,254.951-45.215c187.944-135.317,230.156-491.055,230.562-494.634
				c0.698-6.155,4.17-11.658,9.424-14.937c0.537-0.337,54.375-34.016,105.605-73.853c91.992-71.538,89.004-95.22,88.945-95.439l0,0
				c-0.034,0-9.204-11.428-70.22-7.268c-119.512,8.147-181.924,76.726-254.189,156.133
				c-77.69,85.371-165.747,182.131-342.056,226.589c-10.884,2.739-21.904-3.85-24.639-14.717
				c-2.739-10.867,3.848-21.897,14.717-24.639c164.448-41.465,244.521-129.456,321.963-214.551
				c74.902-82.31,145.654-160.054,281.44-169.309c42.09-2.874,99.434-2.329,111.606,35.286
				c10.708,33.105-20.664,76.045-101.729,139.231c-41.768,32.559-84.287,60.537-101.768,71.765
				c-8.237,61.05-59.438,378.989-245.952,513.281C1602.571,2852.94,1536.917,2870.503,1482.166,2870.503z"/>
		</g>
		<g>
			<path style="fill:#62ED2E;" d="M1666.99,3492.782c21.917,3.297,167.012,3.297,223.276,3.297
				c53.777,0,163.867,2.638,177.667-62.046c12.835-60.068-53.473-203.54-48.349-271.421
				c13.799-183.602,409.973-171.781,409.973-171.781l-479.071-230.987c-68.895,9.081-123.281,25.366-165.694,46.725
				c-279.741,140.682-41.601,503.118-41.601,503.118s-98.675,9.994-127.695,66.105c-5.581,10.806-8.929,21.308-10.4,31.404
				C1598.501,3451.79,1628.738,3486.948,1666.99,3492.782z"/>
		</g>
		<g>
			<path style="fill:#31C418;" d="M1666.99,3492.782c21.917,3.297,167.012,3.297,223.276,3.297
				c53.777,0,163.867,2.638,177.667-62.046c12.835-60.068-53.473-203.54-48.349-271.421
				c13.799-183.602,409.973-171.781,409.973-171.781l-479.071-230.987c-68.895,9.081-123.281,25.366-165.694,46.725
				c0.862,59.256,15.321,160.874,87.87,275.327c121.302,191.466,135.304,323.371,36.984,350.057
				c-103.241,28.055-197.351,1.978-188.574-51.19c0,0-55.806,98.98-115.975,26.432
				C1598.501,3451.79,1628.738,3486.948,1666.99,3492.782z"/>
		</g>
		<g>
			<path style="fill:#371A45;" d="M1903.245,3516.411c-2.407,0-4.741-0.005-7.012-0.01l-5.972-0.005
				c-100.332,0-205.679-0.425-226.304-3.564c-30.015-4.575-56.113-23.359-69.814-50.244c-14.829-29.106-13.643-63.237,3.35-96.104
				c22.71-43.936,78.076-63.428,113.105-71.606c-37.422-65.918-123.491-243.232-59.126-383.916
				c42.671-93.281,142.373-150.889,296.338-171.221c11.074-1.494,21.309,6.353,22.773,17.461
				c1.47,11.108-6.348,21.309-17.461,22.773c-139.141,18.379-228.203,68.101-264.702,147.783
				c-69.683,152.1,70.303,368.599,71.724,370.771c3.892,5.928,4.404,13.457,1.353,19.858c-3.047,6.401-9.214,10.747-16.27,11.465
				c-24.409,2.539-92.119,17.417-111.68,55.264c-10.825,20.938-11.973,41.904-3.242,59.043
				c7.778,15.264,22.646,25.938,39.766,28.545c20.366,3.105,170.767,3.105,220.19,3.105l6.04,0.005
				c46.035,0.161,141.904,0.239,151.787-46.021c5.713-26.743-9.673-82.266-23.247-131.25
				c-14.502-52.334-28.203-101.763-25.513-137.48c15.098-200.63,413.877-191.021,430.811-190.513
				c11.201,0.332,20.01,9.683,19.678,20.884c-0.327,10.996-9.346,19.692-20.278,19.692c-0.2,0-0.4-0.005-0.605-0.01
				c-0.972-0.015-98.457-2.642-195.84,16.768c-84.775,16.895-187.124,54.238-193.296,136.226
				c-2.153,28.652,11.221,76.919,24.155,123.594c16.26,58.677,31.621,114.097,23.823,150.576
				C2071.643,3513.78,1965.628,3516.411,1903.245,3516.411z"/>
		</g>
		<g>
			<path style="fill:#62ED2E;" d="M1802.396,2784.399c0.559,2.486,1.116,4.972,1.725,7.407
				c83.303,341.077,691.489,265.536,764.138,29.425c23.591-76.607,22.729-168.738,1.878-265.485
				c-29.933-139.364-101.263-288.315-200.598-413.98c-45.761-57.937-97.458-110.902-153.771-155.699
				c-122.469-97.509-320.987-138.044-391.454,22.728c6.494,73.614,8.624,137.791,7.915,194.764
				C1828.727,2478.937,1759.324,2586.896,1802.396,2784.399z"/>
		</g>
		<g>
			<path style="fill:#31C418;" d="M1804.121,2791.806c83.303,341.077,691.489,265.536,764.138,29.425
				c23.591-76.607,22.729-168.738,1.878-265.485c-112.019,44.341-267.514,102.227-267.514,102.227
				S1994.775,3007.116,1804.121,2791.806z"/>
		</g>
		<g>
			<path style="fill:#31C418;" d="M1832.228,2203.559c59.661,15.423,123.635,23.743,190.198,23.743
				c129.825,0,249.809-31.759,347.114-85.536c-45.761-57.937-97.458-110.902-153.771-155.699
				c-122.469-97.509-320.987-138.044-391.454,22.728C1830.807,2082.409,1832.937,2146.586,1832.228,2203.559z"/>
		</g>
		<g>
			<path style="fill:#31C418;" d="M2224.24,2045.069l44.594,141.494c52.864-18.416,101.466-42.564,144.436-71.482
				C2373.496,2083.931,2315.965,2055.317,2224.24,2045.069z"/>
		</g>
		<g>
			<path style="fill:#371A45;" d="M2168.885,3043.579c-8.291,0-16.533-0.171-24.707-0.513
				c-193.462-8.11-328.643-103.188-361.602-254.336c-25.771-118.188-12.202-207.395,3.501-310.691
				c16.719-109.961,37.529-246.809,17.998-467.451c-0.298-3.396,0.259-6.816,1.631-9.939
				c26.206-59.771,71.553-99.16,131.133-113.909c86.572-21.431,201.006,11.323,291.587,83.425
				c129.761,103.284,239.321,250.681,308.506,415.039c69.57,165.276,87.593,322.251,50.742,442.007
				C2545.086,2965.625,2346.126,3043.579,2168.885,3043.579z M1844.969,2012.327c19.165,222.385-1.855,360.588-18.765,471.814
				c-15.723,103.408-28.145,185.088-3.97,295.947c28.779,131.987,149.771,215.137,323.643,222.427
				c188.052,8.008,368.818-76.108,403.008-187.236c70.854-230.286-90.698-610.359-345.732-813.359
				c-79.839-63.545-182.935-93.996-256.563-75.781C1900.559,1937.532,1866.389,1966.519,1844.969,2012.327z"/>
		</g>
		<g>
			<path style="fill:#62ED2E;" d="M2214.702,3103.103c64.38,196.894,266.551,261.984,266.551,261.984s-24.656,21.917-42.615,49.617
				c-22.779,35.006-34.803,79.245,26.939,100.248c40.08,13.596,130.08-1.37,141.9-14.814c15.372,6.696,40.383,17.655,87.819,14.814
				c72.903-4.363,150.93-70.874,69.047-216.173c-4.871-8.726-10.349-17.706-16.438-26.99
				c-59.256-90.203-125.361-132.768-144.233-239.408c-0.457-2.587-0.914-5.175-1.319-7.762
				c-30.389-178.935-0.761-280.705-26.888-441.883l-379.838,377.503C2193.75,3014.168,2201.157,3061.604,2214.702,3103.103z"/>
		</g>
		<g>
			<path style="fill:#31C418;" d="M2465.576,3514.953c40.08,13.596,130.08-1.37,141.9-14.814
				c15.372,6.696,40.383,17.655,87.819,14.814c72.903-4.363,150.93-70.874,69.047-216.173
				c7.762,46.826,9.893,119.374-44.138,142.762c-106.235,45.964-116.533-15.372-119.172-42.717
				c-33.991,67.931-169.6,92.232-162.396,15.879C2415.858,3449.71,2403.834,3493.949,2465.576,3514.953z"/>
		</g>
		<g>
			<path style="fill:#31C418;" d="M2214.702,3103.103c29.679-50.53,80.209-105.879,165.288-119.324
				c125.969-19.887,191.871,14.611,222.362,40.84c-30.389-178.935-0.761-280.705-26.888-441.883l-379.838,377.503
				C2193.75,3014.168,2201.157,3061.604,2214.702,3103.103z"/>
		</g>
		<g>
			<path style="fill:#371A45;" d="M2595.52,2579.518c24.002,141.309,0.399,284.841,24.3,425.554
				c11.538,107.528,71.238,152.841,131.595,236.045c49.687,69.337,104.094,176.277,36.991,252.722
				c-47.46,50.581-129.135,51.557-189.036,24.888c0-0.001,23.359-5.223,23.359-5.223c-2.53,2.702-4.738,4.473-7.307,6.172
				c-13.293,8.057-28.767,11.388-43.366,14.516c-34.053,6.179-68.168,9.511-102.84,2.792
				c-102.522-28.156-75.897-110.791-17.802-170.872c5.235-5.571,10.269-10.664,16.367-16.215l7.263,34.487
				c-11.985-3.789-22.13-7.666-33.276-12.561c-116.736-50.405-216.742-149.555-249.306-274.74
				c-11.446-45.162-13.956-92.183-6.985-137.178c0.864-5.577,6.084-9.397,11.66-8.533c4.712,0.73,8.169,4.568,8.608,9.103
				c6.133,64.813,18.983,126.354,48.321,183.596c48.925,93.092,136.752,162.531,233.41,201.677
				c14.841,4.291,19.028,24.71,7.241,34.51c-22.548,22.063-55.708,56.832-53.912,88.733c2.113,14.29,16.669,21.162,29.572,26.072
				c17.479,6.005,35.547,5.214,54.541,4.392c22.842-1.931,47.886-4.556,68.413-13.845c0.241-0.12-0.808,0.574-1.111,1.13
				l23.359-5.222c36.634,16.561,83.927,19.764,120.352,1.875c37.5-18.723,49.081-59.567,40.424-99.491
				c-14.317-66.291-58.433-122.137-100.853-174.254c-35.118-42.069-70.307-89.122-84.795-143.71
				c-11.15-41.457-15.338-84.261-19.606-126.694c-6.11-71.165-3.346-144.157-4.186-214.552
				c-0.762-46.764-4.121-92.976-11.468-138.735C2551.879,2559.993,2590.136,2552.621,2595.52,2579.518L2595.52,2579.518z"/>
		</g>
		<g>
			<path style="fill:#62ED2E;" d="M1925.474,2677.607c0,0,295.367,333.822,511.641,202.677
				c76.099-46.167,126.172-143.929,144.03-257.672c24.454-156.257-11.922-342.751-125.31-467.504
				c-39.47-43.427-100.655-95.378-231.596-110.039l69.758,221.246c1.623,68.439-10.045,138.095-20.699,186.494
				c-8.573,38.811-16.539,63.974-16.539,63.974l-158.286-142.255L1925.474,2677.607z"/>
		</g>
		<g>
			<path style="fill:#31C418;" d="M1925.474,2677.607c0,0,295.367,333.822,511.641,202.677
				c76.099-46.167,126.172-143.929,144.03-257.672c-31.2,79.295-97.61,201.359-211.403,205.925
				c-214.194,8.624-39.572-239.713-84.369-356.703c-2.283-5.936-6.392-12.278-12.074-19.025
				c-8.573,38.811-16.539,63.974-16.539,63.974l-158.286-142.255L1925.474,2677.607z"/>
		</g>
		<g>
			<path style="fill:#31C418;" d="M2224.24,2045.069l44.594,141.494c52.864-18.416,101.466-42.564,144.436-71.482
				C2373.496,2083.931,2315.965,2055.317,2224.24,2045.069z"/>
		</g>
		<g>
			<path style="fill:#371A45;" d="M2304.116,2266.075c7.031,80.791-4.007,162.404-23.423,240.834
				c-1.2,5.343-3.358,10.331-9.434,14.435c-3.235,10.317-16.719,14.144-24.685,6.737c0,0-158.291-142.217-158.291-142.217
				l23.389-3.776l-172.991,303.059l-1.821-17.63c22.468,24.675,47.371,48.591,72.717,71.143
				c75.528,65.756,161.277,127.019,259.765,150.452c150.981,34.039,244.479-70.266,282.805-205.542
				c51.942-190.091,8.454-423.375-146.022-554.681c-25.685-20.625-54.954-36.125-86.018-47.14
				c-31.262-10.906-64.16-17.772-97.581-21.535c-8.354-0.928-14.375-8.453-13.447-16.807c0.93-8.362,8.471-14.386,16.831-13.444
				c35.215,3.968,70.378,11.228,104.373,23.097c34.04,12.053,66.588,29.333,94.836,52.044
				c164.41,139.041,211.523,384.969,156.299,586.836c-42.464,151.256-151.719,264.357-318.638,226.892
				c-134.646-32.413-255.388-132.176-348.716-231.144c-4.518-4.962-5.064-12.148-1.82-17.634l172.993-303.059
				c4.649-8.374,16.346-10.24,23.389-3.777c0,0,158.293,142.217,158.293,142.217l-24.685,6.737
				c-2.966-6.047-2.177-11.22-0.559-16.109l4.373-14.881c14.017-50.012,25.007-100.993,31.86-152.496
				c3.107-20.777,4.465-41.646,5.957-62.625C2284.913,2253.718,2303.046,2253.551,2304.116,2266.075L2304.116,2266.075z"/>
		</g>
		<g>
			<g>
				<g>
					<g>
						<g>
							<path style="fill:#62ED2E;" d="M2521.841,1933.914c-115.907,75.679-249.21,130.265-377.647,159.889l-209.092,46.732
								c-290.635,34.388-478.276-67.856-590.851-226.453c-130.726-184.285-160.097-444.584-131.805-654.821
								c63.798-473.699,465.176-851.024,938.815-787.185c473.698,63.797,760.897,533.879,697.058,1007.518
								C2822.949,1668.222,2690.971,1823.536,2521.841,1933.914z"/>
						</g>
						<g>
							<path style="fill:#31C418;" d="M2521.841,1933.914c-115.907,75.679-249.21,130.265-377.647,159.889l-209.092,46.732
								c-290.635,34.388-478.276-67.856-590.851-226.453c69.372,54.369,201.847,133.58,400.277,151.42
								C1970.425,2085.749,2290.135,2034.425,2521.841,1933.914z"/>
						</g>
						<g style="opacity:0.7;">
							<path style="fill:#FFFFFF;" d="M2526.895,762.049c11.672,19.336,15.144,37.173,8.271,51.043
								c-19.2,38.693-111.988,31.75-207.299-15.512c-95.253-47.286-156.875-116.994-137.656-155.727
								c9.592-19.326,37.471-27.266,74.88-24.556c-42.158-13.44-86.204-23.403-131.982-29.582
								c-451.857-60.872-837.953,279.782-927.906,722.553c0.828-16.884,2.374-33.896,4.677-51.015
								c63.809-473.646,465.137-851.005,938.825-787.179c473.646,63.808,760.82,533.916,697.028,1007.522
								c-2.304,17.119-5.351,33.974-8.951,50.453C2856.911,1231.311,2739.763,941.355,2526.895,762.049z"/>
						</g>
						<g>
							<path style="fill:#371A45;" d="M2141.904,2083.91c241.071-70.287,494.565-204.934,624.159-427.946
								c53.015-90.16,69.164-190.921,70.502-294.021c9.874-358.593-206.323-732.043-558.896-840.786
								c-542.419-171.449-1030.557,288.713-1051.846,823.544c-18.838,296.861,90.195,657.354,402.539,752.862
								c54.407,17.367,111.906,26.475,169.384,28.569c45.378,1.527,90.398-1.272,135.737,4.388
								c5.836,0.516,10.116,5.766,9.465,11.583c-0.427,3.857-2.913,6.997-6.228,8.449c-38.197,15.986-79.436,16.92-120.046,16.916
								c-122.228-0.507-246.803-30.742-348.635-100.75c-229.552-157.871-299.524-460.592-284.95-724.452
								C1207.257,781.994,1722.539,302.633,2290,482.49c369.896,114.021,596.955,504.017,587.451,880.048
								c-0.399,179.255-48.548,313.168-170.825,445.392c-147.895,155.805-350.567,256.142-560.156,295.755
								C2133.746,2105.649,2129.69,2087.582,2141.904,2083.91L2141.904,2083.91z"/>
						</g>
						<g>
							<path style="fill:#371A45;" d="M1233.967,1135.861c-50.402,53.581-97.856,203.542-24.766,375.646
								c73.09,172.104,239.663,207.589,295.744,142.544c43.057-49.939,82.03-192.96,8.939-365.064
								C1440.794,1116.882,1285.582,1080.99,1233.967,1135.861z"/>
						</g>
						<g style="opacity:0.5;">
							<path style="fill:#FFFFFF;" d="M1538.113,1575.224c5.609-63.138-3.136-141.126-39.275-226.21
								c-73.095-172.12-228.301-208.028-279.913-153.168c-17.031,18.089-33.733,47.218-45.552,84.493
								c6.947-73.665,33.35-130.865,60.586-159.822c51.612-54.86,206.818-18.952,279.923,153.119
								C1566.263,1396.929,1561.071,1505.292,1538.113,1575.224z"/>
						</g>
						<g style="opacity:0.35;">
							<path style="fill:#111A28;" d="M1504.946,1654.072c-56.092,65.025-222.668,29.511-295.734-142.55
								c-53.473-125.878-42.449-239.905-12.951-313.015c-1.749,56.885,8.247,121.957,37.391,190.555
								c73.056,172.111,239.632,207.625,295.734,142.55c8.889-10.316,17.613-24.634,25.211-42.368
								C1552.82,1566.6,1529.525,1625.542,1504.946,1654.072z"/>
						</g>
						<g>
							<path style="fill:#371A45;" d="M2279.579,1348.28c40.481,70.265,41.125,229.131-111.638,359.96
								c-152.763,130.829-366.586,96.639-409.585,13.401c-33.013-63.908-26.063-212.883,126.7-343.712
								S2238.123,1276.323,2279.579,1348.28z"/>
						</g>
						<g style="opacity:0.5;">
							<path style="fill:#FFFFFF;" d="M2292.438,1505.804c-0.119-39.64-9.281-73.677-23.002-97.51
								c-41.456-71.946-241.752-101.202-394.526,29.64c-75.753,64.85-115.676,134.223-132.613,195.421
								c-1.148-74.4,33.528-177.231,142.764-270.775c152.767-130.792,353.071-101.585,394.526-29.64
								C2301.418,1370.855,2311.688,1434.556,2292.438,1505.804z"/>
						</g>
						<g style="opacity:0.35;">
							<path style="fill:#111A28;" d="M2167.917,1708.25c-152.717,130.799-366.555,96.635-409.574,13.411
								c-18.837-36.502-24.636-100.763,2.304-173.552c2.466,19.589,7.567,36.5,14.38,49.699
								c43.013,83.275,256.851,117.438,409.568-13.361c60.909-52.192,97.441-108.779,116.804-162.474
								C2309.321,1501.984,2279.61,1612.609,2167.917,1708.25z"/>
						</g>
						<g>
							<path style="fill:#371A45;" d="M1428.391,1704.815c-9.126,0-18.569-0.745-28.257-2.258
								c-68.267-10.664-159.18-64.368-209.609-183.118c-78.232-184.204-23.936-341.565,28.662-397.483l0,0
								c23.965-25.476,63.535-35.481,108.54-27.444c65.703,11.729,154.023,66.892,204.834,186.543
								c77.119,181.589,33.418,333.284-12.246,386.247C1499.251,1691.731,1466.638,1704.815,1428.391,1704.815z M1248.748,1149.764
								L1248.748,1149.764c-48.955,52.046-87.793,196.223-20.869,353.811c43.936,103.447,121.026,149.902,178.516,158.882
								c35.63,5.557,66.689-2.534,83.179-21.658c42.197-48.938,71.841-187.983,5.635-343.879
								c-44.482-104.736-119.365-152.59-174.614-162.451C1289.798,1128.965,1262.937,1134.688,1248.748,1149.764z"/>
						</g>
						<g>
							<path style="fill:#371A45;" d="M1932.312,1815.523c-22.964,0.002-44.458-2.149-63.716-5.908
								c-61.943-12.1-108.696-40.769-128.267-78.66c-35.42-68.565-31.035-229.221,131.528-368.438
								c87.642-75.066,202.314-109.175,306.758-91.26c56.426,9.685,99.634,34.065,118.545,66.892
								c42.681,74.077,48.926,244.243-116.021,385.503C2101.844,1791.565,2008.968,1815.52,1932.312,1815.523z M2125.261,1307.473
								c-67.695,0-152.778,22.3-227.007,85.869c-144.775,123.989-151.587,261.46-121.87,318.984
								c13.647,26.411,51.025,47.891,99.995,57.454c74.219,14.497,186.304,1.887,278.364-76.953
								c138.521-118.635,146.108-266.975,107.251-334.417v-0.002c-12.485-21.672-47.065-39.739-90.244-47.148
								C2157.6,1308.831,2141.956,1307.473,2125.261,1307.473z"/>
						</g>
						<g>
							
								<ellipse transform="matrix(0.9424 -0.3344 0.3344 0.9424 -479.5618 632.2938)" style="fill:#371A45;" cx="1596.349" cy="1708.756" rx="13.259" ry="23.866"/>
						</g>
						<g>
							
								<ellipse transform="matrix(0.6489 -0.7608 0.7608 0.6489 -730.4578 1850.6019)" style="fill:#371A45;" cx="1640.111" cy="1716.836" rx="23.866" ry="13.259"/>
						</g>
						<g>
							<path style="fill:#62ED2E;" d="M1943.033,1076.093l105.893,75.281c16.364-40.421,32.84-73.079,49.135-99.093
								c65.448-104.569,128.826-103.183,175.61-74.888c63.776,38.591,62.373,154.661,62.373,154.661
								c-61.716,56.553,3.968,122.609,61.078,115.92c49.462-5.765,79.158-79.993,20.488-125.433
								c1.4-23.22,4.549-225.641-129.246-263.587c-131.942-37.33-230.599,48.15-287.984,122.666
								C1963.551,1029.482,1943.771,1072.777,1943.033,1076.093z"/>
						</g>
						<g style="opacity:0.5;">
							<path style="fill:#FFFFFF;" d="M1961.782,1039.221c2.197-2.934,4.471-5.913,6.745-8.891
								c60.635-78.733,164.159-166.286,304.299-129.635c115.895,30.31,111.611,215.601,110.12,240.162
								c38.091,24.564,51.711,64.507,56.616,78.786c16.979-27.134,15.6-68.04-21.951-97.102
								c1.4-23.22,4.549-225.641-129.246-263.587c-131.942-37.33-230.599,48.15-287.984,122.666
								C1984.139,1002.709,1971.247,1022.92,1961.782,1039.221z"/>
						</g>
						<g>
							<path style="fill:#31C418;" d="M1943.033,1076.093c0,0,4.148,35.566,40.648,58.203c36.5,22.637,65.245,17.078,65.245,17.078
								c16.364-40.421,32.84-73.079,49.135-99.093c-40.886,5.022-100.805,1.099-97.681-70.662
								C1963.551,1029.482,1943.771,1072.777,1943.033,1076.093z"/>
						</g>
						<g>
							<path style="fill:#371A45;" d="M1933.118,1073.974c1.072-4.167,3.452-9.408,5.132-13.398
								c39.812-84.919,100.485-164.562,186.642-206.798c53.885-26.442,118.852-30.813,176.305-12.53
								c105.241,34.253,136.244,158.623,137.407,257.062c0.026,8.402-0.11,16.407-0.747,25.483l-7.834-17.296
								c28.104,20.647,46.613,58.877,38.456,94.462c-6.504,36.683-40.606,68.97-78.921,67.733
								c-67.11,0.624-127.021-70.244-84.271-132.115c5.103-7.398,10.971-13.725,17.086-19.5l-6.584,14.719
								c-3.064-46.007-10.622-96.227-42.421-128.795c-35.716-31.91-80.033-29.39-115.819,2.577
								c-45.328,39.503-73.184,95.268-99.264,149.725c-2.37,5.083-8.412,7.28-13.495,4.909c-4.778-2.23-6.99-7.747-5.269-12.618
								c14.167-39.672,30.669-78.971,53.875-115.667c24.361-37.985,55.829-75.081,102.969-86.973
								c36.621-8.98,76.862,3.062,104.878,27.463c27.103,23.906,41.148,59.758,48.459,93.049c4.813,22.268,7.051,43.948,6.67,66.819
								c0.174,12.185-12.046,18.178-17.534,27.13c-8.216,12.051-10.013,25.701-2.485,38.901
								c11.61,20.84,42.871,35.781,66.552,27.478c23.195-9.279,33.06-39.97,22.573-62.323c-4.07-9.381-11.301-17.774-20.298-24.879
								c-5.446-4.278-8.143-10.88-7.834-17.308c0.302-14.27-0.415-30.136-1.638-44.69c-4.013-43.856-13.194-90.08-33.672-128.342
								c-28.632-56.22-77.337-77.248-137.486-78.431c-59.383-1.231-115.103,26.78-159.814,65.404
								c-44.524,38.815-81.865,87.531-109.989,139.683c0,0-1.206,2.422-1.206,2.422l-0.505,1.069l-0.178,0.383
								C1950.276,1089.629,1931.295,1088.884,1933.118,1073.974L1933.118,1073.974z"/>
						</g>
						<g>
							<path style="fill:#62ED2E;" d="M845.291,835.189c33.138,40.708,94.095,10.141,104.52-40.606
								c14.204-14.8,298.614-201.752,399.938,76.163c11.75,32.315,21.065,70.945,27.175,116.858l117.994-12.649
								c1.045-3.495-7.344-57.087-34.576-121.848c-32.893-78.135-93.281-172.368-197.7-214.06
								c-160.371-64.005-346.561,84.071-363.525,96.004C850.62,736.391,803.683,784.142,845.291,835.189z"/>
						</g>
						<g>
							<path style="fill:#62ED2E;" d="M845.291,835.189c33.138,40.708,94.095,10.141,104.52-40.606
								c14.204-14.8,298.614-201.752,399.938,76.163c11.75,32.315,21.065,70.945,27.175,116.858l117.994-12.649
								c1.045-3.495-7.344-57.087-34.576-121.848c-32.893-78.135-93.281-172.368-197.7-214.06
								c-160.371-64.005-346.561,84.071-363.525,96.004C850.62,736.391,803.683,784.142,845.291,835.189z"/>
						</g>
						<g style="opacity:0.5;">
							<path style="fill:#FFFFFF;" d="M829.533,800.071c13.731-10.507,56.434-38.333,81.623-25.051
								c18.316-12.879,187.009-164.927,359.964-95.874c100.183,39.999,162.763,124.865,200.343,202.472
								c-3.314-9.185-6.989-18.724-11.12-28.511c-32.893-78.135-93.281-172.368-197.7-214.06
								c-160.371-64.005-346.561,84.071-363.525,96.004C862.134,736.091,826.012,764.127,829.533,800.071z"/>
						</g>
						<g>
							<path style="fill:#31C418;" d="M1349.75,870.746c11.75,32.315,21.065,70.945,27.175,116.858c0,0,30.775,22.314,67.888,17.788
								c37.112-4.526,50.106-30.437,50.106-30.437c1.045-3.495-7.344-57.087-34.576-121.848
								C1451.697,900.242,1419.557,933.462,1349.75,870.746z"/>
						</g>
						<g>
							<path style="fill:#371A45;" d="M1485.198,971.942c-0.649,2.571-0.313,1.788-0.439,1.744l-0.146-1.079l-0.439-2.712
								c-31.053-135.799-115.732-285.195-258.739-320.471c-104.473-20.862-208.499,30.577-293.698,87.523
								c-5.228,3.616-15.824,10.964-20.996,14.697c-3.367,2.401-7.224,3.592-11.069,3.663
								c-24.167,0.737-52.137,17.891-49.917,43.231c1.146,12.595,13.854,31.954,27.332,34.445
								c24.338,4.954,48.329-19.023,52.817-42.48c0.883-5.611,4.491-9.722,8.611-13.129c4.889-4.1,10.088-7.891,15.283-11.331
								c38.992-25.688,81.498-45.007,126.858-56.886c201.828-50.321,291.132,97.89,306.318,277.124
								c0.994,12.786-17.731,15.434-20.114,2.677c-26.036-154.169-96.823-289.328-275.43-239.022
								c-44.599,12.601-88.419,32.421-126.836,58.683c-0.117,0.089-0.439,0.332-0.395,0.29c0.083-0.073,0.151-0.16,0.205-0.258
								l5.259-9.997c-9.043,44.961-53.653,84.442-101.846,73.843c-32.02-8.101-53.551-36.777-58.404-69.512
								c-5.648-49.936,43.023-87.554,89.115-88.247c0.01-0.007-11.137,3.7-11.087,3.675
								c109.591-84.148,263.997-157.026,399.522-91.072c127.205,62.08,199.074,204.782,217.897,339.892
								c-0.002,0.001,0.255,3.645,0.255,3.645l0.066,2.111C1506.143,989.614,1481.864,988.709,1485.198,971.942L1485.198,971.942z"
								/>
						</g>
					</g>
				</g>
			</g>
			<g>
				
					<ellipse transform="matrix(0.9888 -0.1494 0.1494 0.9888 -255.3279 272.8771)" style="fill:#371A45;" cx="1689.009" cy="1836.278" rx="35.22" ry="66.76"/>
			</g>
		</g>
		<g>
			<path style="fill:#371A45;" d="M2475.62,2609.38c-68.51-57.567-146.625-104.182-227.824-141.339
				c-24.03-11.822-7.984-47.352,16.844-36.959c81.606,44.682,158.054,98.432,224.753,163.392
				C2498.438,2603.62,2485.533,2617.744,2475.62,2609.38L2475.62,2609.38z"/>
		</g>
		<g>
			<path style="fill:#371A45;" d="M2597.495,3517.792c-24.227-12.351-39.124-41.303-34.944-68.117
				c2.037-14.785,7.091-29.651,14.448-42.549c6.322-11.432,14.406-19.886,19.575-30.667c2.325-4.81,3.731-10.415,5.005-16.235
				c1.226-5.522,6.694-9.006,12.217-7.781c11.969,2.927,8.55,21.209,7.909,30.925c-3.905,22.099-17.554,41.024-18.088,61.948
				c-0.612,6.176-0.661,13.483,1.474,19.032c2.222,6.616,6.87,12.748,12.041,17.591c0,0,0.408,0.416,0.408,0.416
				c0.024,0.061,0.366,0.315-0.085,0.096C2640.389,3496.33,2621.269,3530.272,2597.495,3517.792L2597.495,3517.792z"/>
		</g>
		<g>
			<path style="fill:#FF3B3B;" d="M1298.479,2617.864"/>
		</g>
		<g>
			<g>
				<path style="fill:#FF3B3B;" d="M891.942,2252.364c1.705,9.267,4.003,18.542,6.943,27.842
					c37.239,117.603,130.751,111.827,130.751,111.827s31.848,50.919,42.446,68.374c18.575,30.501,40.756,52.604,64.457,68.392
					c94.718,63.231,213.045,25.94,218.099,23.186l82.5-44.809c104.04-29.62,105.101-292.794,105.101-292.794
					s1.787-30.997-7.404-66.956c-10.884-42.673-37.309-92.302-100.617-104.888c-0.053-0.291-0.087-0.63-0.187-0.938
					c-27.873-168.948-159.623-173.066-247.591-156.843C1049.496,1910.024,859.288,2074.396,891.942,2252.364z"/>
			</g>
			<g style="opacity:0.5;">
				<path style="fill:#FFFFFF;" d="M1202.599,1969.203c0,0-205.533,28.526-228.214,217.049
					C974.385,2186.252,1060.929,2038.142,1202.599,1969.203z"/>
			</g>
			<g style="opacity:0.7;">
				<path style="fill:#FFFFFF;" d="M1237.024,2179.322c-6.556-39.184,146.788-204.558,297.81-31.897
					c-10.884-42.673-37.309-92.302-100.617-104.888c-0.053-0.291-0.087-0.63-0.187-0.938c-11.734-2.102-24.432-3.374-38.047-3.367
					C1211.279,2038.187,1236.25,2175.342,1237.024,2179.322z"/>
			</g>
			<g>
				<path style="fill:#D62D2D;" d="M891.942,2252.364c1.705,9.267,4.003,18.542,6.943,27.842
					c37.239,117.603,130.751,111.827,130.751,111.827s31.848,50.919,42.446,68.374c18.575,30.501,40.756,52.604,64.457,68.392
					c-0.929-17.922,4.668-50.246,43.086-90.777c59.725-62.905,137.026-37.548,178.689-155.274
					c76.525-7.964,52.804-76.164,52.804-76.164s10.024-33.157-22.022-44.629c-40.038-14.333-88.655,47.212-149.2,25.557
					c-31.465-47.195,22.565-117.133,67.765-133.842c-43.982,2.146-65.922-9.398-111.522,82.003
					C1126.548,2275.061,972.063,2320.493,891.942,2252.364z"/>
			</g>
			<g style="opacity:0.7;">
				<path style="fill:#FFFFFF;" d="M898.885,2280.206c5.467,17.251,12.146,31.869,19.573,44.22
					c-47.015-218.496,117.792-364.226,286.87-397.322c69.871-13.677,171.303-0.855,222.345,84.813
					c-37.731-139.699-158.732-142.412-241.234-127.161C1042.379,1911.348,839.346,2091.863,898.885,2280.206z"/>
			</g>
			<g>
				<path style="fill:#371A45;" d="M1268.699,2585.845c-68.452,0-157.412-22.124-213.921-114.878
					c-7.69-12.617-26.787-43.259-36.484-58.801c-40.894-3.049-108.867-31.409-138.735-125.842
					c-23.013-72.749-11.66-150.344,32.822-224.392c58.569-97.495,169.746-178.559,270.366-197.129
					c79.053-14.592,143.105-5.103,190.371,28.191c40.088,28.235,66.528,72.93,78.711,132.974
					c93.833,27.683,113.696,133.909,110.688,189.031c-0.161,30.962-5.117,279.08-119.858,311.697
					c-10.767,3.062-22.002-3.191-25.068-13.97c-3.061-10.781,3.193-22.004,13.975-25.068
					c72.969-20.745,90.117-209.028,90.371-273.352c0-0.361,0.015-0.725,0.034-1.086c0.288-5.32,5.947-131.375-91.709-150.801
					c-8.306-1.65-14.712-8.289-16.069-16.648c-9.033-55.598-30.713-95.835-64.443-119.595
					c-38.017-26.775-91.719-33.999-159.639-21.46c-75.977,14.024-183.818,79.707-242.94,178.118
					c-26.719,44.478-53.423,113.765-28.911,191.252c31.665,100.122,107.143,97.866,110.298,97.693
					c7.368-0.342,14.424,3.298,18.301,9.509c1.304,2.083,32.002,51.204,42.578,68.56c84.649,138.96,250.488,85.845,256.738,83.691
					c9.634-4.456,21.177-0.696,26.309,8.752c5.352,9.849,1.704,22.168-8.145,27.517
					C1355.13,2574.81,1317.019,2585.845,1268.699,2585.845z M1345.911,2533.66c-0.425,0.193-0.733,0.369-0.947,0.483
					C1345.281,2533.972,1345.594,2533.811,1345.911,2533.66z"/>
			</g>
			<g>
				<path style="fill:#371A45;" d="M1348.162,2282.716l-10.317-58.293l23.801,19.848c-5.631,0.922-10.081,1.39-15.068,1.843
					c-61.528,5.767-128.948-11.471-133.28-84.389c-7.343-68.567,47.866-118.198,109.062-134.653
					c37.887-10.755,77.519-11.914,115.812-4.461c11.001,2.141,18.184,12.795,16.042,23.796
					c-2.146,11.054-12.908,18.25-23.943,16.014c-57.997-11.047-137.094,0.103-168.917,54.898
					c-9.235,17.026-9.954,38.145-4.66,56.968c8.375,29.313,46.573,32.378,74.179,32.091c7.602-0.194,16.564-0.934,23.75-2.08
					l23.804,19.849l-9.973,58.59C1366.525,2294.049,1349.993,2293.968,1348.162,2282.716L1348.162,2282.716z"/>
			</g>
			<g>
				<path style="fill:#371A45;" d="M1028.162,2371.804c57.823-4.63,116.444-24.409,161.302-61.854
					c27.404-22.73,47.892-52.834,60.046-86.268c2.049-5.212,7.932-7.777,13.145-5.73c4.978,1.956,7.529,7.445,5.967,12.471
					c-5.555,18.777-13.301,37.049-23.372,53.948c-17.141,28.205-40.492,52.564-67.539,71.435
					c-43.513,30.33-94.232,49.147-146.638,56.483C1003.359,2414.343,1000.331,2373.775,1028.162,2371.804L1028.162,2371.804z"/>
			</g>
			<g>
				<path style="fill:#371A45;" d="M1350.503,2205.482c21.169-4.548,41.051-8.57,63.003-9.748
					c5.647-0.235,10.417,4.153,10.654,9.802c0.2,4.691-2.792,8.722-7.002,10.16c-12.898,5.177-26.396,12.68-38.809,19.836
					c-4.233,2.471-8.611,5.048-12.583,7.556C1337.391,2258.519,1319.396,2214.207,1350.503,2205.482L1350.503,2205.482z"/>
			</g>
			<g>
				<path style="fill:#FF3B3B;" d="M1156.78,2543.118c-0.767,98.199,84.494,134.211,84.494,134.211
					c43.759,10.352,202.225-64.271,288.841-131.171c8.032-6.185,15.451-12.33,22.064-18.346
					c19.562-17.61,32.464-34.103,34.997-47.409c12.565-66.841-60.129-144.149-60.129-144.149
					c-12.087,10.89-24.547,21.475-37.268,31.746c-45.897,37.217-94.854,70.186-141.118,97.177
					C1264.184,2514.499,1188.7,2543.898,1156.78,2543.118z"/>
			</g>
			<g style="opacity:0.7;">
				<path style="fill:#FFFFFF;" d="M1489.778,2367.999c17.949,12.639,37.983,31.815,54.346,60.559
					c23.872,41.886,17.509,76.957,8.054,99.253c19.562-17.61,32.464-34.103,34.997-47.409
					c12.565-66.841-60.129-144.149-60.129-144.149C1514.96,2347.143,1502.499,2357.729,1489.778,2367.999z"/>
			</g>
			<g>
				<path style="fill:#D62D2D;" d="M1156.78,2543.118c-0.767,98.199,84.494,134.211,84.494,134.211
					c43.759,10.352,202.225-64.271,288.841-131.171c-37.315,24.407-87.312,43.479-146.713,33.616
					c-86.936-14.355-62.905-73.935-34.741-114.598C1264.184,2514.499,1188.7,2543.898,1156.78,2543.118z"/>
			</g>
			<g>
				<path style="fill:#371A45;" d="M1250.349,2698.516c-5.073,0-9.673-0.454-13.735-1.411c-1.104-0.264-2.188-0.615-3.232-1.06
					c-3.994-1.685-97.749-42.593-96.875-153.101c0.044-5.439,2.271-10.637,6.182-14.421c3.906-3.784,9.141-5.818,14.614-5.706
					c0.308,0.01,0.62,0.012,0.942,0.012c45.591,0,217.202-77.468,355.254-201.677c8.213-7.385,20.806-6.853,28.364,1.189
					c3.252,3.464,79.565,85.723,65.225,161.829c-5.469,29.043-41.553,65.415-107.246,108.108
					C1429.885,2637.74,1308.928,2698.516,1250.349,2698.516z M1247.552,2657.906c28.677,4.023,138.306-39.961,230.176-99.658
					c62.329-40.508,87.158-69.268,89.478-81.589c7.109-37.756-21.479-84.778-42.256-111.536
					c-118.354,101.677-271.601,182.366-346.841,196.194C1185.999,2625.147,1237.219,2652.92,1247.552,2657.906z"/>
			</g>
		</g>
		<g>
			<path style="fill:#FF3B3B;" d="M2174.453,2568.333l-222.193,159.52c0,0-240.985-22.926-370.274-217.531
				c-44.073-66.374-58.396-126.068-54.887-179.465c2.74-42.247,16.726-80.553,35.951-115.014
				c23.55-42.247,55.031-78.678,83.532-109.63c55.608-60.415,199.171-113.235,268.718,9.468c0,0,0.577-0.577,1.682-1.586
				c0.096-0.096,0.193-0.144,0.288-0.24c9.901-8.844,57.002-45.948,126.308-25.233c3.845,1.153,7.738,2.451,11.727,3.989
				c128.086,48.831,113.523,248.867,106.603,288.375c-1.394,8.074-0.145,35.085,2.067,66.23
				C2167.821,2501.526,2174.453,2568.333,2174.453,2568.333z"/>
		</g>
		<g style="opacity:0.5;">
			<path style="fill:#FFFFFF;" d="M2030.455,2128.049c6.094-4.1,77.465,20.921,90.89,111.029c3.6,24.161,1.432,38.695-3.176,39.313
				c-11.094,1.488-29.332-53.086-46.295-85.952C2054.37,2158.525,2024.361,2132.149,2030.455,2128.049z"/>
		</g>
		<g style="opacity:0.5;">
			<path style="fill:#FFFFFF;" d="M1619.853,2377.858c-11.005-7.251,5.873-150.41,124.254-220.402
				c37.732-22.309,63.07-29.156,67.283-21.956c10.143,17.337-73.86,74.919-114.842,127.124
				C1646.579,2326.275,1630.858,2385.109,1619.853,2377.858z"/>
		</g>
		<g style="opacity:0.7;">
			<path style="fill:#FFFFFF;" d="M1925.009,2159.802c0,0-35.182-106.458-178.697-66.663
				c-126.068,34.941-219.213,237.717-219.213,237.717c2.74-42.247,16.726-80.553,35.951-115.014
				c23.55-42.247,55.031-78.678,83.532-109.63c55.608-60.415,199.171-113.235,268.718,9.468c0,0,0.577-0.577,1.682-1.586
				c0.096-0.096,0.193-0.144,0.288-0.24C1921.645,2138.414,1925.009,2159.802,1925.009,2159.802z"/>
		</g>
		<g>
			<path style="fill:#D62D2D;" d="M2043.579,2088.621c-1.009,0.24-2.018,0.385-3.076,0.577
				c-94.154,15.236-76.515,113.86-76.515,113.86c-25.281-33.98-39.603-67.624-47.005-88.964
				C1926.306,2105.731,1973.648,2067.714,2043.579,2088.621z"/>
		</g>
		<g>
			<path style="fill:#D62D2D;" d="M2174.453,2568.333l-222.193,159.52c0,0-240.985-22.926-370.274-217.531
				c-78.967-118.906-62.481-216.521-18.936-294.479c-27.639,94.703,6.921,251.656,158.125,329.853
				c230.988,119.387,420.115-144.956,420.115-144.956l22.685,46.476C2167.821,2501.526,2174.453,2568.333,2174.453,2568.333z"/>
		</g>
		<g>
			<path style="fill:#371A45;" d="M1952.239,2743.428c-0.488,0-0.982-0.024-1.475-0.068
				c-10.142-0.962-249.893-25.884-381.753-224.424c-135.61-204.194,0.62-352.18,66.094-423.298
				c35.737-38.823,106.377-76.919,177.036-68.809c43.877,5.037,80.581,27.678,107.075,65.811
				c23.726-16.299,74.121-40.356,141.67-14.602c130.137,49.619,127.544,242.114,116.372,305.635
				c-2.207,12.542,4.731,102.964,12.72,183.137c0.552,5.544-1.899,10.964-6.426,14.214l-222.222,159.48
				C1958.67,2742.412,1955.486,2743.428,1952.239,2743.428z M1792.971,2056.931c-52.5,0-106.24,28.667-134.927,59.824
				c-96.152,104.453-170.347,223.379-63.057,384.929c112.949,170.068,316.714,204.98,353.101,209.937l209.976-150.688
				c-4.019-41.145-15.249-161.455-11.519-182.664c8.154-46.36,15.62-228.242-96.772-271.096
				c-73.999-28.213-121.47,17.585-123.452,19.548c-3.452,3.423-8.311,5.059-13.135,4.392c-4.809-0.667-9.063-3.506-11.455-7.729
				c-22.07-38.953-53.408-61.013-93.145-65.574C1803.411,2057.217,1798.196,2056.931,1792.971,2056.931z"/>
		</g>
		<g>
			<path style="fill:#FF3B3B;" d="M2230.11,2648.116c-47.198,82.523-106.459,161.538-135.248,173.65
				c0,0-110.352-26.578-139.67-80.697c-14.515-26.771,25.569-76.804,74.93-140.198c50.562-64.837,110.928-143.659,132.749-226.038
				c0,0,103.334,20.859,132.46,82.043C2309.605,2486.771,2275.433,2569.102,2230.11,2648.116z"/>
		</g>
		<g style="opacity:0.7;">
			<path style="fill:#FFFFFF;" d="M2261.542,2588.808c16.822-42.391,24.464-77.669,15.909-95.5
				c-23.887-50.225-94.635-75.026-126.068-83.773c4.566-11.487,8.411-23.07,11.487-34.701c0,0,103.334,20.859,132.46,82.043
				C2306,2479.273,2289.563,2531.036,2261.542,2588.808z"/>
		</g>
		<g>
			<path style="fill:#D62D2D;" d="M2230.11,2648.116c-47.198,82.523-106.459,161.538-135.248,173.65
				c0,0-110.352-26.578-139.67-80.697c-14.515-26.771,25.569-76.804,74.93-140.198c-2.067,28.068,4.47,61.472,36.816,86.56
				C2118.028,2727.035,2189.737,2690.748,2230.11,2648.116z"/>
		</g>
		<g>
			<path style="fill:#371A45;" d="M2094.861,2837.349c-1.221,0-2.446-0.142-3.647-0.43c-4.78-1.152-117.48-28.862-149.722-88.433
				c-18.926-34.966,19.268-83.945,72.134-151.738c50.137-64.292,112.534-144.309,134.146-225.891
				c2.114-7.971,10.078-12.905,18.154-11.294c4.531,0.913,111.348,23.137,143.496,90.581c9.102,19.092,5.171,50.334-12.017,95.515
				c-38.867,102.153-147.046,269.624-196.489,290.464C2098.987,2836.939,2096.931,2837.349,2094.861,2837.349z M2173.601,2393.626
				c-26.162,82.241-86.421,159.514-135.386,222.302c-36.802,47.192-78.516,100.688-69.302,117.715
				c20.088,37.109,91.724,62.881,124.063,71.543c38.271-23.691,136.235-167.979,175.283-270.615
				c19.302-50.732,14.839-67.178,13.013-71.008C2261.751,2422.605,2201.135,2401.367,2173.601,2393.626z"/>
		</g>
		<g>
			<path style="fill:#371A45;" d="M1958.179,2208.292c-18.055-19.219-31.714-41.289-44.91-63.874
				c-4.258-7.456-8.332-15.003-12.317-22.604c-4.011-7.651-1.06-17.105,6.589-21.116c7.651-4.011,17.104-1.061,21.116,6.59
				c3.352,8.36,5.908,17.044,9.256,25.417c8.734,22.386,18.441,45.236,31.85,65.151
				C1975.901,2205.568,1965.134,2215.241,1958.179,2208.292L1958.179,2208.292z"/>
		</g>
		<g>
			<path style="fill:#FFFFFF;" d="M2229.629,2545.695c-13.65,36.528-33.115,70.988-52.244,99.874
				c-32.49,49.168-63.923,82.283-63.923,82.283c-29.799-5.96-84.302-44.746-84.302-44.746c26.338-33.74,49.504-66.423,68.729-94.972
				c38.017-56.473,60.415-96.702,60.415-96.702C2207.135,2510.273,2229.629,2545.695,2229.629,2545.695z"/>
		</g>
		<g>
			<path style="fill:#D8D8D8;" d="M2177.385,2645.569c-32.49,49.168-63.923,82.283-63.923,82.283
				c-29.799-5.96-84.302-44.746-84.302-44.746c26.338-33.74,49.504-66.423,68.729-94.972c-3.22,20.811-5.527,55.32,10.478,70.508
				C2125.862,2675.272,2154.267,2662.007,2177.385,2645.569z"/>
		</g>
		<g>
			<path style="fill:#371A45;" d="M1786.196,3516.035c-38.475-3.705-75.712-27.589-90.019-64.657
				c-6.788-19.956-10.816-40.422-1.861-62.745c22.723-52.246,89.025-51.456,132.601-72.538c10.528-5.778,20.617,8.533,11.647,16.482
				c-28.078,27.04-118.874,37.795-108.616,86.452c5.301,31.36,30.907,49.989,60.578,56.651
				C1816.995,3480.41,1812.861,3517.739,1786.196,3516.035L1786.196,3516.035z"/>
		</g>
	</g>
</g>
</svg>
